# xmcd
#
# Track frame offsets:
#	150
#	12187
#	26594
#	37484
#	47282
#	58058
#	72756
#	82397
#	100826
#	112478
#	123387
#	133419
#	151883
#	163770
#	177787
#	191844
#
# Disc length: 2689 seconds
#
# Revision: 1
# Processed by: cddbd v1.5.2PL0 Copyright (c) Steve Scherf et al.
# Submitted via: audiograbber 1.83.01
#
DISCID=ea0a7f10
DTITLE=Little Richard - Little Richard (remastered) CD 2 of 2
DYEAR=1900
DGENRE=Rock and Roll
TTITLE0=Goodnight Irene
TTITLE1=Going home tomorrow
TTITLE2=My wheels they are slippin' all the way
TTITLE3=Something moves in my heart
TTITLE4=It ain't what you do
TTITLE5=Without love
TTITLE6=Talkin' bout soul
TTITLE7=I don't know what you've got but it's got me (parts 1 and 2)
TTITLE8=Cherry red
TTITLE9=Only you
TTITLE10=Memories are made of this
TTITLE11=I don't know what you've got but it's got me (parts 1 and 2) alternate
TTITLE12=Cross over
TTITLE13=You better stop
TTITLE14=Why don't you love me
TTITLE15=Keep a-knockin'
EXTD=
EXTT0=
EXTT1=
EXTT2=
EXTT3=
EXTT4=
EXTT5=
EXTT6=
EXTT7=
EXTT8=
EXTT9=
EXTT10=
EXTT11=
EXTT12=
EXTT13=
EXTT14=
EXTT15=
PLAYORDER=
